<?xml version="1.0" encoding="utf-8"?>
<!-- Generator: Adobe Illustrator 21.0.2, SVG Export Plug-In . SVG Version: 6.00 Build 0)  -->
<svg version="1.1" id="Layer_1" xmlns="http://www.w3.org/2000/svg" xmlns:xlink="http://www.w3.org/1999/xlink" x="0px" y="0px"
	 viewBox="0 0 960 560" style="enable-background:new 0 0 960 560;" xml:space="preserve">
<style type="text/css">
	.st0{fill:#7D71BA;}
	.st1{fill:#E62529;}
	.st2{fill:#F5F505;}
	.st3{fill:url(#SVGID_1_);fill-opacity:0.13;}
	.st4{opacity:0.22;fill:url(#SVGID_2_);enable-background:new    ;}
	.st5{opacity:0.36;fill:url(#SVGID_3_);enable-background:new    ;}
	.st6{fill:#251E59;}
</style>
<path class="st0" d="M627.5,52.2c-82,31.4-82.2,121.1-82.2,121.9c0,0-45.2,0-61.7,10C483.7,184.1,491.6,96.8,627.5,52.2z"/>
<path class="st0" d="M627.8,52.1c6.4-2.5,13.3-4.5,20.7-6.2C641.3,47.9,634.4,49.9,627.8,52.1z"/>
<path class="st0" d="M863.4,95.1L777.7,98c0,0-31.7-73.8-129.2-52.1C770.2,13.1,863.4,95.1,863.4,95.1z"/>
<path class="st0" d="M863.4,100.3c-116.3,41.9-151,121.2-202.1,207.8c-30.7,52.1-64,61.4-88.2,78.9c47.7-43,74.7-156.3,107.1-207.6
	C738.9,86.6,863.4,100.3,863.4,100.3z"/>
<g>
	<g>
		<path class="st1" d="M558.1,398c-144.8,133.5-305.7,98.4-305.7,65.3c0-22,34.7-31.5,57.9-35.4c11.9-2,29.1-2.5,49,3.2
			C444.8,455.5,521.4,423.9,558.1,398z"/>
	</g>
</g>
<g>
	<g>
		<path class="st2" d="M945.6,111.1c0,0-21.1,218.4-386,294.1l-15.3,45.4C544.3,450.7,939.3,367.4,945.6,111.1z"/>
	</g>
</g>
<linearGradient id="SVGID_1_" gradientUnits="userSpaceOnUse" x1="714.4501" y1="309.6499" x2="808.9476" y2="215.1523" gradientTransform="matrix(1 0 0 -1 0 560)">
	<stop  offset="0" style="stop-color:#000000"/>
	<stop  offset="1" style="stop-color:#FFFFFF;stop-opacity:0"/>
</linearGradient>
<path class="st3" d="M945.6,111.1c0,0-21.1,218.4-386,294.1l-15.3,45.4C544.3,450.7,939.3,367.4,945.6,111.1z"/>
<linearGradient id="SVGID_2_" gradientUnits="userSpaceOnUse" x1="483.6" y1="441.85" x2="627.5" y2="441.85" gradientTransform="matrix(1 0 0 -1 0 560)">
	<stop  offset="0" style="stop-color:#000000"/>
	<stop  offset="1" style="stop-color:#FFFFFF;stop-opacity:0"/>
</linearGradient>
<path class="st4" d="M627.5,52.2c-82,31.4-82.2,121.1-82.2,121.9c0,0-45.2,0-61.7,10C483.7,184.1,491.6,96.8,627.5,52.2z"/>
<linearGradient id="SVGID_3_" gradientUnits="userSpaceOnUse" x1="252.4" y1="114.1723" x2="558.1" y2="114.1723" gradientTransform="matrix(1 0 0 -1 0 560)">
	<stop  offset="0" style="stop-color:#000000"/>
	<stop  offset="1" style="stop-color:#FFFFFF;stop-opacity:0"/>
</linearGradient>
<path class="st5" d="M558.1,398c-144.8,133.5-305.7,98.4-305.7,65.3c0-22,34.7-31.5,57.9-35.4c11.9-2,37.4-0.1,49,3.2
	C445,455,521.4,423.9,558.1,398z"/>
<g>
	<path class="st6" d="M141.9,189.5l15.4-73.7h25.2c5.5,0,9.3,0.2,11.5,0.5c3.6,0.5,6.7,1.5,9.2,3s4.4,3.5,5.7,6s2,5.3,2,8.3
		c0,4.1-1.1,7.6-3.4,10.6c-2.3,3-5.8,5.3-10.6,6.8c3.8,1,6.7,2.9,8.9,5.6c2.1,2.7,3.2,5.7,3.2,9c0,4.4-1.3,8.6-3.8,12.6
		s-6,6.8-10.4,8.6c-4.4,1.7-10.5,2.6-18.1,2.6L141.9,189.5L141.9,189.5z M159.5,177.6h14.6c6.1,0,10.2-0.4,12.3-1.2s3.8-2.1,5-3.9
		s1.9-3.7,1.9-5.7c0-2.4-0.9-4.5-2.7-6.1s-4.8-2.4-9-2.4h-18.1L159.5,177.6z M166.2,145.6h11.6c5.2,0,8.9-0.4,11.2-1.1
		c2.3-0.7,4-1.9,5.1-3.6c1.1-1.7,1.7-3.5,1.7-5.4s-0.5-3.4-1.6-4.6c-1.1-1.2-2.6-2-4.6-2.4c-1.1-0.2-3.8-0.3-8-0.3h-11.8
		L166.2,145.6z"/>
	<path class="st6" d="M287.3,189.5h-14.4l-2.7-61.6l-11.7,61.6h-13.7l15.4-73.7h21.6l2.3,51.6l25.1-51.6h21.9l-15.4,73.7h-13.8
		l14.5-61.1L287.3,189.5z"/>
	<path class="st6" d="M391.4,189.5h-15.2l12.9-61.4h-21.6l2.6-12.3h58.1l-2.6,12.3h-21.3L391.4,189.5z"/>
</g>
<g>
	<g>
		<path class="st6" d="M141.4,379l18.6,2.3c-3.6,8.3-9.1,14.6-16.4,19c-7.3,4.4-15.8,6.6-25.6,6.6c-11,0-19.6-2.7-25.8-8.1
			s-9.3-13.3-9.3-23.6c0-8.4,2.1-16,6.2-23s9.9-12.3,17.2-16c7.4-3.7,15.4-5.5,24-5.5c9.7,0,17.6,2.1,23.6,6.4s9.5,10.1,10.6,17.5
			l-17.7,1.4c-1-4.3-2.9-7.4-5.7-9.3s-6.5-2.9-11.2-2.9c-5.1,0-9.9,1.3-14.3,3.8c-4.4,2.5-8,6.5-10.6,11.9c-2.7,5.4-4,10.8-4,16.2
			c0,5.9,1.7,10.5,5.2,13.7s7.8,4.8,12.9,4.8c4.8,0,9.2-1.3,13.1-3.8C136.5,387.8,139.5,384,141.4,379z"/>
		<path class="st6" d="M166.2,405.6l18.8-73.7h18.4l-18.7,73.7L166.2,405.6L166.2,405.6z"/>
		<path class="st6" d="M220.3,405.6h-18.5l18.8-73.7h36.5c6.5,0,11.6,0.6,15.4,1.9s6.8,3.3,9,6.2c2.2,2.9,3.3,6.4,3.3,10.4
			c0,3.7-0.9,7.3-2.6,10.9c-1.8,3.5-3.9,6.3-6.5,8.4s-5.3,3.7-8.2,4.8c-2.9,1.1-6.9,1.9-11.9,2.5c-2.9,0.3-8.3,0.5-16.3,0.5h-11.8
			L220.3,405.6z M230.5,365.3h5.7c9.8,0,16.3-0.5,19.5-1.5c3.3-1,5.8-2.6,7.7-4.8c1.9-2.2,2.8-4.6,2.8-7.3c0-1.8-0.5-3.2-1.4-4.4
			c-1-1.1-2.3-2-4-2.5s-5.6-0.8-11.6-0.8H236L230.5,365.3z"/>
		<path class="st6" d="M344.4,389.3h-35.6L298,405.6h-19l50.8-73.7h20.5l14.6,73.7h-17.5L344.4,389.3z M342.1,377l-5.2-29.7
			L315.2,377H342.1z"/>
		<path class="st6" d="M395.1,405.6h-18.5l18.8-73.7h39.9c6.9,0,12.2,0.6,16,1.7c3.8,1.2,6.9,3.3,9.3,6.4c2.3,3.1,3.5,6.8,3.5,11.2
			c0,6.3-2.3,11.4-6.9,15.5s-11.5,6.6-20.8,7.6c2.4,1.7,4.6,4,6.7,6.9c4.1,5.8,8.7,13.9,13.8,24.4H437c-1.6-4.2-4.7-10.6-9.4-19.5
			c-2.5-4.8-5.2-8-8.1-9.6c-1.8-1-4.8-1.5-9.2-1.5h-7.5L395.1,405.6z M405.7,364h9.8c9.9,0,16.5-0.5,19.8-1.5c3.2-1,5.8-2.5,7.6-4.6
			c1.8-2.1,2.8-4.3,2.8-6.5c0-2.7-1.3-4.7-4-6c-1.6-0.8-5.2-1.2-10.6-1.2h-20.3L405.7,364z"/>
		<path class="st6" d="M466,405.6l18.8-73.7h18.4l-18.7,73.7L466,405.6L466,405.6z"/>
	</g>
</g>
<g>
	<path class="st6" d="M9.4,290.1l16-81.1h57l-2.7,13.5H38.6L34.9,241h39.8L72,254.5H32.2l-4.8,22h44.7L69.4,290h-60
		C9.4,290,9.4,290.1,9.4,290.1z"/>
	<path class="st6" d="M80.8,290.1L96.9,209h15l-16,81.1H80.8z"/>
	<path class="st6" d="M113.6,253.2h29.2l-3,15.3h-29.2L113.6,253.2z"/>
	<path class="st6" d="M148.9,263.8l15-0.8c0.2,5.1,1,8.5,2.5,10.2c2.3,2.9,6.6,4.3,12.8,4.3c5.2,0,8.9-1,11.2-2.9
		c2.3-2,3.5-4.3,3.5-7.1c0-2.4-0.9-4.4-2.8-6.1c-1.3-1.2-5-3.2-10.9-5.9c-6-2.7-10.3-5-13-6.8s-4.9-4.2-6.5-7.1
		c-1.6-2.9-2.4-6.3-2.4-10.2c0-6.8,2.3-12.5,7-17s11.5-6.7,20.3-6.7c9,0,16,2.2,20.9,6.7s7.7,10.4,8.1,17.8l-15.1,0.7
		c-0.4-3.9-1.7-6.8-4-8.9c-2.3-2.1-5.6-3.1-10.1-3.1c-4.4,0-7.5,0.8-9.4,2.4c-1.9,1.6-2.8,3.7-2.8,6.1c0,2.3,0.9,4.2,2.6,5.8
		c1.7,1.5,5.5,3.7,11.4,6.4c8.8,4,14.5,7.3,16.9,9.8c3.6,3.7,5.4,8.4,5.4,14.2c0,7.2-2.7,13.3-8,18.3c-5.4,5.1-12.8,7.6-22.4,7.6
		c-6.6,0-12.3-1.2-17.2-3.5c-4.8-2.3-8.3-5.6-10.2-9.8C149.7,274,148.8,269.2,148.9,263.8z"/>
	<path class="st6" d="M272.2,265.6h-37.7c0,0.6-0.1,1.1-0.1,1.4c0,3.9,1.1,7.1,3.2,9.5c2.1,2.4,4.7,3.6,7.7,3.6
		c5,0,8.9-2.7,11.7-8.2l13.5,2.4c-2.6,5.7-6.1,10-10.5,12.9s-9.3,4.3-14.8,4.3c-7.5,0-13.6-2.5-18.2-7.5c-4.7-5-7-11.6-7-19.8
		c0-8,2.1-15.2,6.3-21.5c5.8-8.5,14-12.7,24.7-12.7c6.8,0,12.2,2.2,16.2,6.7c4,4.4,6,10.7,6,18.7
		C273.2,259.1,272.9,262.6,272.2,265.6z M259.5,256c0-0.7,0.1-1.2,0.1-1.6c0-4.3-0.9-7.6-2.8-9.8s-4.3-3.3-7.4-3.3s-5.9,1.2-8.4,3.7
		s-4.1,6.1-5,10.9h23.5L259.5,256L259.5,256z"/>
	<path class="st6" d="M289.4,231.4h15.1l-9.9,49.7c-2.8,14.2-5.2,22.8-7.2,25.8c-3,4.7-7.8,7-14.5,7c-4.1,0-7.9-0.6-11.3-1.8
		L264,299c2.4,0.6,4.4,0.9,6.1,0.9c2,0,3.6-0.8,4.9-2.5c1.2-1.7,2.8-7.5,4.8-17.5L289.4,231.4z M293.8,209h15.1l-2.8,14.4H291
		L293.8,209z"/>
	<path class="st6" d="M328.7,248l-14.7-1.3c1.7-5.2,4.6-9.3,8.8-12.3c4.2-2.9,9.7-4.4,16.6-4.4c7.2,0,12.5,1.5,15.9,4.6
		c3.4,3,5.1,6.8,5.1,11.1c0,1.8-0.1,3.6-0.4,5.6s-1.3,7.2-3.1,15.7c-1.5,7-2.2,11.9-2.2,14.7c0,2.5,0.4,5.3,1.3,8.3h-14.6
		c-0.6-2.1-1-4.3-1.1-6.6c-2.2,2.6-4.7,4.6-7.6,5.9c-2.9,1.4-5.7,2.1-8.6,2.1c-4.6,0-8.4-1.6-11.4-4.8c-3-3.2-4.5-7.3-4.5-12.3
		c0-5.6,1.7-10.1,5-13.4c3.3-3.4,9.2-5.4,17.7-6.1c7.2-0.6,11.9-1.4,14.4-2.3c0.6-2.2,0.9-4,0.9-5.3c0-1.7-0.6-3.1-1.9-4.3
		c-1.3-1.1-3.2-1.7-5.8-1.7c-2.7,0-4.8,0.6-6.4,1.7C330.3,244.2,329.3,245.9,328.7,248z M343,262.7c-0.9,0.3-2.1,0.5-3.6,0.7
		c-7.5,1-12.5,2.4-14.8,4.2c-1.6,1.3-2.5,3.1-2.5,5.4c0,1.8,0.6,3.4,1.9,4.7c1.3,1.3,2.9,1.9,5,1.9c2.3,0,4.4-0.6,6.4-1.7
		c2-1.2,3.5-2.7,4.5-4.5s1.9-4.7,2.6-8.5L343,262.7z"/>
	<path class="st6" d="M382.4,290.1h-15l16.1-81.1h15l-5.8,28.9c3.4-2.8,6.6-4.8,9.5-6.1c2.9-1.2,6.1-1.9,9.4-1.9
		c4.5,0,8.1,1.4,10.7,4.1c2.6,2.7,3.9,6.3,3.9,10.7c0,2.4-0.5,6-1.5,10.9l-6.8,34.3h-15l7-35c0.7-3.8,1.1-6.2,1.1-7.3
		c0-2-0.6-3.5-1.7-4.7c-1.2-1.2-2.7-1.8-4.7-1.8c-2.5,0-4.9,0.9-7.2,2.8c-3,2.4-5.3,5.4-6.9,9c-0.9,2-2,6.5-3.5,13.8L382.4,290.1z"
		/>
	<path class="st6" d="M436.5,243.1l2.3-11.8h7.3l1.8-9.4l17.2-10.9l-4,20.3h9.2l-2.3,11.8h-9.2l-4.9,24.6c-0.9,4.5-1.3,7-1.3,7.6
		c0,1.2,0.4,2.2,1.1,2.8c0.7,0.7,2.1,1,4,1c0.7,0,2.3-0.1,5-0.4l-2.4,11.8c-2.6,0.6-5.2,0.8-8,0.8c-5.3,0-9.2-1.1-11.6-3.2
		c-2.4-2.2-3.6-5.2-3.6-9c0-1.8,0.6-6,1.9-12.5l4.7-23.6h-7.2V243.1z"/>
	<path class="st6" d="M522.7,265.6H485c0,0.6-0.1,1.1-0.1,1.4c0,3.9,1.1,7.1,3.2,9.5s4.7,3.6,7.7,3.6c5,0,8.9-2.7,11.7-8.2l13.5,2.4
		c-2.6,5.7-6.1,10-10.5,12.9s-9.3,4.3-14.8,4.3c-7.5,0-13.6-2.5-18.2-7.5c-4.7-5-7-11.6-7-19.8c0-8,2.1-15.2,6.3-21.5
		c5.8-8.5,14-12.7,24.7-12.7c6.8,0,12.2,2.2,16.2,6.7c4,4.4,6,10.7,6,18.7C523.7,259.1,523.4,262.6,522.7,265.6z M510,256
		c0-0.7,0.1-1.2,0.1-1.6c0-4.3-0.9-7.6-2.8-9.8c-1.9-2.2-4.3-3.3-7.4-3.3s-5.9,1.2-8.4,3.7s-4.1,6.1-5,10.9H510V256z"/>
	<path class="st6" d="M539,231.4h14l-2.3,11.4c5.2-8.5,10.9-12.8,17-12.8c2.2,0,4.5,0.6,7,1.7l-5.8,13c-1.4-0.5-2.8-0.8-4.3-0.8
		c-2.6,0-5.2,1-7.9,3.1s-4.8,4.8-6.3,8.3c-1.5,3.4-3,8.9-4.5,16.4l-3.7,18.4h-15L539,231.4z"/>
	<path class="st6" d="M591.2,248l-14.7-1.3c1.7-5.2,4.6-9.3,8.8-12.3c4.2-2.9,9.7-4.4,16.6-4.4c7.2,0,12.5,1.5,15.9,4.6
		c3.4,3,5.1,6.8,5.1,11.1c0,1.8-0.1,3.6-0.4,5.6c-0.3,2-1.3,7.2-3.1,15.7c-1.5,7-2.2,11.9-2.2,14.7c0,2.5,0.4,5.3,1.3,8.3h-14.6
		c-0.6-2.1-1-4.3-1.1-6.6c-2.2,2.6-4.7,4.6-7.6,5.9c-2.9,1.4-5.7,2.1-8.6,2.1c-4.6,0-8.4-1.6-11.4-4.8c-3-3.2-4.5-7.3-4.5-12.3
		c0-5.6,1.7-10.1,5-13.4c3.3-3.4,9.2-5.4,17.7-6.1c7.2-0.6,11.9-1.4,14.4-2.3c0.6-2.2,0.9-4,0.9-5.3c0-1.7-0.6-3.1-1.9-4.3
		c-1.3-1.1-3.2-1.7-5.8-1.7c-2.7,0-4.8,0.6-6.4,1.7C592.8,244.2,591.7,245.9,591.2,248z M605.5,262.7c-0.9,0.3-2.1,0.5-3.6,0.7
		c-7.5,1-12.5,2.4-14.8,4.2c-1.6,1.3-2.5,3.1-2.5,5.4c0,1.8,0.6,3.4,1.9,4.7c1.3,1.3,2.9,1.9,5,1.9c2.3,0,4.4-0.6,6.4-1.7
		c2-1.2,3.5-2.7,4.5-4.5s1.9-4.7,2.6-8.5L605.5,262.7z"/>
</g>
</svg>
