<?xml version="1.0" encoding="utf-8"?>
<!-- Generator: Adobe Illustrator 20.1.0, SVG Export Plug-In . SVG Version: 6.00 Build 0)  -->
<svg version="1.1" xmlns="http://www.w3.org/2000/svg" xmlns:xlink="http://www.w3.org/1999/xlink" x="0px" y="0px"
	 viewBox="0 0 472 404" style="enable-background:new 0 0 472 404;" xml:space="preserve">
<style type="text/css">
	.st0{fill:#CCCCCC;}
</style>
<g id="background">
</g>
<g id="objects">
	<polygon class="st0" points="462.8,53.2 420.8,11.1 210,253.3 139.5,152.3 97.5,194.4 209.6,305.4 211.8,303.2 212.3,303.7 	"/>
	<path class="st0" d="M345.6,200.6c0,0.8,0,1.6,0,2.4c0,76.6-62.3,138.9-138.9,138.9C130.1,342,67.8,279.7,67.8,203
		c0-76.6,62.3-138.9,138.9-138.9c39.2,0,74.7,16.4,100,42.6L340.5,73c-0.6-0.6-1.2-1.2-1.8-1.9c-35.2-35.2-82.1-54.6-131.9-54.6
		c-49.8,0-96.7,19.4-131.9,54.6C39.6,106.4,20.2,153.2,20.2,203S39.6,299.7,74.8,335c35.2,35.2,82.1,54.6,131.9,54.6
		c49.8,0,96.7-19.4,131.9-54.6c35.2-35.2,54.6-82.1,54.6-131.9c0-15.3-1.8-30.2-5.4-44.7L345.6,200.6z"/>
</g>
</svg>
