<?xml version="1.0" encoding="utf-8"?>
<!-- Generator: Adobe Illustrator 20.1.0, SVG Export Plug-In . SVG Version: 6.00 Build 0)  -->
<svg version="1.1" id="Layer_1" xmlns="http://www.w3.org/2000/svg" xmlns:xlink="http://www.w3.org/1999/xlink" x="0px" y="0px"
	 viewBox="0 0 171 231" style="enable-background:new 0 0 171 231;" xml:space="preserve">
<style type="text/css">
	.st0{fill:#CCCCCC;}
</style>
<g id="_x32_38._Unlocked">
	<g>
		<path class="st0" d="M155,92.8H85.5V71.9c0-23-18.7-41.7-41.7-41.7c-23,0-41.7,18.7-41.7,41.7v27.8c0,3.8,3.1,7,7,7
			c3.8,0,7-3.1,7-7V71.9c0-15.4,12.4-27.8,27.8-27.8c15.4,0,27.8,12.4,27.8,27.8v20.8c-7.7,0-13.9,6.2-13.9,13.9v69.5
			c0,7.7,6.2,13.9,13.9,13.9H155c7.7,0,13.9-6.2,13.9-13.9v-69.5C168.9,99,162.7,92.8,155,92.8z M155,176.2H71.6v-69.5H155V176.2z
			 M106.4,146.5v8.9c0,3.8,3.1,6.9,7,6.9c3.8,0,7-3.1,7-6.9v-8.9c4.1-2.4,7-6.8,7-12c0-7.7-6.2-13.9-13.9-13.9
			c-7.7,0-13.9,6.2-13.9,13.9C99.4,139.6,102.2,144.1,106.4,146.5z"/>
	</g>
</g>
</svg>
