<?xml version="1.0" encoding="utf-8"?>
<!-- Generator: Adobe Illustrator 21.1.0, SVG Export Plug-In . SVG Version: 6.00 Build 0)  -->
<svg version="1.1" id="Layer_1" xmlns="http://www.w3.org/2000/svg" xmlns:xlink="http://www.w3.org/1999/xlink" x="0px" y="0px"
	 viewBox="0 0 161 182" style="enable-background:new 0 0 161 182;" xml:space="preserve">
<style type="text/css">
	.st0{fill:#CCCCCC;}
</style>
<g>
	<path class="st0" d="M146.4,25.8h-11v-11c0-6.1-4.9-11-11-11H14.9c-6.1,0-11,4.9-11,11v131.6c0,6.1,4.9,11,11,11h11v11
		c0,6.1,4.9,11,11,11h109.6c6.1,0,11-4.9,11-11V36.7C157.4,30.7,152.5,25.8,146.4,25.8z M14.9,146.4V14.8h109.6v131.6L14.9,146.4
		L14.9,146.4z M146.4,168.3H36.8v-11h87.7c6.1,0,11-4.9,11-11V36.7h11v131.6H146.4z"/>
	<path class="st0" d="M108.1,36.7H53.3c-3,0-5.5,2.5-5.5,5.5s2.5,5.5,5.5,5.5h54.8c3,0,5.5-2.5,5.5-5.5
		C113.5,39.2,111.1,36.7,108.1,36.7z"/>
	<path class="st0" d="M108.1,69.6H31.3c-3,0-5.5,2.5-5.5,5.5s2.5,5.5,5.5,5.5h76.8c3,0,5.5-2.5,5.5-5.5
		C113.5,72.1,111.1,69.6,108.1,69.6z"/>
	<path class="st0" d="M108.1,91.6H31.3c-3,0-5.5,2.5-5.5,5.5s2.5,5.5,5.5,5.5h76.8c3,0,5.5-2.5,5.5-5.5
		C113.5,94,111.1,91.6,108.1,91.6z"/>
	<path class="st0" d="M108.1,113.5H31.3c-3,0-5.5,2.5-5.5,5.5s2.5,5.5,5.5,5.5h76.8c3,0,5.5-2.5,5.5-5.5
		C113.5,116,111.1,113.5,108.1,113.5z"/>
</g>
</svg>
